<mxfile host="app.diagrams.net" modified="2024-04-02T08:05:27.681Z" agent="Mozilla/5.0 (X11; Ubuntu; Linux x86_64; rv:124.0) Gecko/20100101 Firefox/124.0" etag="jY6vvHkith0VFf4U1-ia" version="24.2.1" type="google">
  <diagram id="C5RBs43oDa-KdzZeNtuy" name="Page-1">
    <mxGraphModel grid="1" page="1" gridSize="10" guides="1" tooltips="1" connect="1" arrows="1" fold="1" pageScale="1" pageWidth="827" pageHeight="1169" math="0" shadow="0">
      <root>
        <mxCell id="WIyWlLk6GJQsqaUBKTNV-0" />
        <mxCell id="WIyWlLk6GJQsqaUBKTNV-1" parent="WIyWlLk6GJQsqaUBKTNV-0" />
        <mxCell id="ofJoavslcpLzxaMsUvqN-4" value="Client" style="shape=umlActor;verticalLabelPosition=bottom;verticalAlign=top;html=1;outlineConnect=0;" vertex="1" parent="WIyWlLk6GJQsqaUBKTNV-1">
          <mxGeometry x="120" y="200" width="30" height="60" as="geometry" />
        </mxCell>
        <mxCell id="ofJoavslcpLzxaMsUvqN-11" value="ExpressFood" style="swimlane;whiteSpace=wrap;html=1;" vertex="1" parent="WIyWlLk6GJQsqaUBKTNV-1">
          <mxGeometry x="270" y="50" width="200" height="590" as="geometry" />
        </mxCell>
        <mxCell id="ofJoavslcpLzxaMsUvqN-10" value="Sélection commande" style="ellipse;whiteSpace=wrap;html=1;align=center;" vertex="1" parent="ofJoavslcpLzxaMsUvqN-11">
          <mxGeometry x="50" y="40" width="100" height="40" as="geometry" />
        </mxCell>
        <mxCell id="pBB1KdMLuGqapG5jB2QY-0" value="Ajout dans le panier" style="ellipse;whiteSpace=wrap;html=1;align=center;" vertex="1" parent="ofJoavslcpLzxaMsUvqN-11">
          <mxGeometry x="50" y="100" width="100" height="40" as="geometry" />
        </mxCell>
        <mxCell id="pBB1KdMLuGqapG5jB2QY-1" value="&lt;div&gt;Vérification du panier&lt;/div&gt;" style="ellipse;whiteSpace=wrap;html=1;align=center;" vertex="1" parent="ofJoavslcpLzxaMsUvqN-11">
          <mxGeometry x="50" y="160" width="100" height="40" as="geometry" />
        </mxCell>
        <mxCell id="pBB1KdMLuGqapG5jB2QY-3" value="&lt;div&gt;validation du panier&lt;/div&gt;" style="ellipse;whiteSpace=wrap;html=1;align=center;" vertex="1" parent="ofJoavslcpLzxaMsUvqN-11">
          <mxGeometry x="50" y="220" width="100" height="40" as="geometry" />
        </mxCell>
        <mxCell id="pBB1KdMLuGqapG5jB2QY-4" value="Entrée moyen de paiement" style="ellipse;whiteSpace=wrap;html=1;align=center;" vertex="1" parent="ofJoavslcpLzxaMsUvqN-11">
          <mxGeometry x="50" y="280" width="100" height="40" as="geometry" />
        </mxCell>
        <mxCell id="pBB1KdMLuGqapG5jB2QY-5" value="Intérogation de la banque" style="ellipse;whiteSpace=wrap;html=1;align=center;" vertex="1" parent="ofJoavslcpLzxaMsUvqN-11">
          <mxGeometry x="50" y="340" width="100" height="40" as="geometry" />
        </mxCell>
        <mxCell id="pBB1KdMLuGqapG5jB2QY-6" value="Validation de la banque" style="ellipse;whiteSpace=wrap;html=1;align=center;" vertex="1" parent="ofJoavslcpLzxaMsUvqN-11">
          <mxGeometry x="50" y="400" width="100" height="40" as="geometry" />
        </mxCell>
        <mxCell id="pBB1KdMLuGqapG5jB2QY-7" value="Validation de la commande" style="ellipse;whiteSpace=wrap;html=1;align=center;" vertex="1" parent="ofJoavslcpLzxaMsUvqN-11">
          <mxGeometry x="50" y="460" width="100" height="40" as="geometry" />
        </mxCell>
        <mxCell id="pBB1KdMLuGqapG5jB2QY-8" value="Facture" style="ellipse;whiteSpace=wrap;html=1;align=center;" vertex="1" parent="ofJoavslcpLzxaMsUvqN-11">
          <mxGeometry x="50" y="520" width="100" height="40" as="geometry" />
        </mxCell>
        <mxCell id="pBB1KdMLuGqapG5jB2QY-20" value="" style="endArrow=classic;html=1;rounded=0;exitX=0.5;exitY=1;exitDx=0;exitDy=0;entryX=0.5;entryY=0;entryDx=0;entryDy=0;" edge="1" parent="ofJoavslcpLzxaMsUvqN-11" source="ofJoavslcpLzxaMsUvqN-10" target="pBB1KdMLuGqapG5jB2QY-0">
          <mxGeometry width="50" height="50" relative="1" as="geometry">
            <mxPoint x="100" y="260" as="sourcePoint" />
            <mxPoint x="150" y="210" as="targetPoint" />
          </mxGeometry>
        </mxCell>
        <mxCell id="pBB1KdMLuGqapG5jB2QY-21" value="" style="endArrow=classic;html=1;rounded=0;exitX=0.5;exitY=1;exitDx=0;exitDy=0;entryX=0.5;entryY=0;entryDx=0;entryDy=0;" edge="1" parent="ofJoavslcpLzxaMsUvqN-11">
          <mxGeometry width="50" height="50" relative="1" as="geometry">
            <mxPoint x="99.83" y="140" as="sourcePoint" />
            <mxPoint x="99.83" y="160" as="targetPoint" />
          </mxGeometry>
        </mxCell>
        <mxCell id="pBB1KdMLuGqapG5jB2QY-22" value="" style="endArrow=classic;html=1;rounded=0;exitX=0.5;exitY=1;exitDx=0;exitDy=0;entryX=0.5;entryY=0;entryDx=0;entryDy=0;" edge="1" parent="ofJoavslcpLzxaMsUvqN-11">
          <mxGeometry width="50" height="50" relative="1" as="geometry">
            <mxPoint x="99.83" y="200" as="sourcePoint" />
            <mxPoint x="99.83" y="220" as="targetPoint" />
          </mxGeometry>
        </mxCell>
        <mxCell id="pBB1KdMLuGqapG5jB2QY-23" value="" style="endArrow=classic;html=1;rounded=0;exitX=0.5;exitY=1;exitDx=0;exitDy=0;entryX=0.5;entryY=0;entryDx=0;entryDy=0;" edge="1" parent="ofJoavslcpLzxaMsUvqN-11">
          <mxGeometry width="50" height="50" relative="1" as="geometry">
            <mxPoint x="99.83" y="260" as="sourcePoint" />
            <mxPoint x="99.83" y="280" as="targetPoint" />
          </mxGeometry>
        </mxCell>
        <mxCell id="pBB1KdMLuGqapG5jB2QY-24" value="" style="endArrow=classic;html=1;rounded=0;exitX=0.5;exitY=1;exitDx=0;exitDy=0;entryX=0.5;entryY=0;entryDx=0;entryDy=0;" edge="1" parent="ofJoavslcpLzxaMsUvqN-11">
          <mxGeometry width="50" height="50" relative="1" as="geometry">
            <mxPoint x="99.83" y="320" as="sourcePoint" />
            <mxPoint x="99.83" y="340" as="targetPoint" />
          </mxGeometry>
        </mxCell>
        <mxCell id="pBB1KdMLuGqapG5jB2QY-25" value="" style="endArrow=classic;html=1;rounded=0;exitX=0.5;exitY=1;exitDx=0;exitDy=0;entryX=0.5;entryY=0;entryDx=0;entryDy=0;" edge="1" parent="ofJoavslcpLzxaMsUvqN-11">
          <mxGeometry width="50" height="50" relative="1" as="geometry">
            <mxPoint x="99.83" y="380" as="sourcePoint" />
            <mxPoint x="99.83" y="400" as="targetPoint" />
          </mxGeometry>
        </mxCell>
        <mxCell id="pBB1KdMLuGqapG5jB2QY-26" value="" style="endArrow=classic;html=1;rounded=0;exitX=0.5;exitY=1;exitDx=0;exitDy=0;entryX=0.5;entryY=0;entryDx=0;entryDy=0;" edge="1" parent="ofJoavslcpLzxaMsUvqN-11">
          <mxGeometry width="50" height="50" relative="1" as="geometry">
            <mxPoint x="99.83" y="440" as="sourcePoint" />
            <mxPoint x="99.83" y="460" as="targetPoint" />
          </mxGeometry>
        </mxCell>
        <mxCell id="pBB1KdMLuGqapG5jB2QY-27" value="" style="endArrow=classic;html=1;rounded=0;exitX=0.5;exitY=1;exitDx=0;exitDy=0;entryX=0.5;entryY=0;entryDx=0;entryDy=0;" edge="1" parent="ofJoavslcpLzxaMsUvqN-11">
          <mxGeometry width="50" height="50" relative="1" as="geometry">
            <mxPoint x="99.83" y="500" as="sourcePoint" />
            <mxPoint x="99.83" y="520" as="targetPoint" />
          </mxGeometry>
        </mxCell>
        <mxCell id="ofJoavslcpLzxaMsUvqN-23" value="" style="endArrow=classic;html=1;rounded=0;" edge="1" parent="WIyWlLk6GJQsqaUBKTNV-1" source="ofJoavslcpLzxaMsUvqN-4" target="ofJoavslcpLzxaMsUvqN-10">
          <mxGeometry width="50" height="50" relative="1" as="geometry">
            <mxPoint x="170" y="326" as="sourcePoint" />
            <mxPoint x="310" y="380" as="targetPoint" />
          </mxGeometry>
        </mxCell>
        <mxCell id="pBB1KdMLuGqapG5jB2QY-9" value="Banque du client" style="shape=umlActor;verticalLabelPosition=bottom;verticalAlign=top;html=1;outlineConnect=0;" vertex="1" parent="WIyWlLk6GJQsqaUBKTNV-1">
          <mxGeometry x="120" y="450" width="30" height="60" as="geometry" />
        </mxCell>
        <mxCell id="pBB1KdMLuGqapG5jB2QY-10" value="" style="endArrow=classic;html=1;rounded=0;" edge="1" parent="WIyWlLk6GJQsqaUBKTNV-1" source="pBB1KdMLuGqapG5jB2QY-9" target="pBB1KdMLuGqapG5jB2QY-6">
          <mxGeometry width="50" height="50" relative="1" as="geometry">
            <mxPoint x="170" y="570" as="sourcePoint" />
            <mxPoint x="220" y="520" as="targetPoint" />
          </mxGeometry>
        </mxCell>
        <mxCell id="pBB1KdMLuGqapG5jB2QY-11" value="" style="endArrow=classic;html=1;rounded=0;exitX=0;exitY=0.5;exitDx=0;exitDy=0;" edge="1" parent="WIyWlLk6GJQsqaUBKTNV-1" source="pBB1KdMLuGqapG5jB2QY-5" target="pBB1KdMLuGqapG5jB2QY-9">
          <mxGeometry width="50" height="50" relative="1" as="geometry">
            <mxPoint x="230" y="490" as="sourcePoint" />
            <mxPoint x="330" y="478" as="targetPoint" />
          </mxGeometry>
        </mxCell>
        <mxCell id="pBB1KdMLuGqapG5jB2QY-12" value="" style="endArrow=classic;html=1;rounded=0;" edge="1" parent="WIyWlLk6GJQsqaUBKTNV-1" source="ofJoavslcpLzxaMsUvqN-4" target="pBB1KdMLuGqapG5jB2QY-4">
          <mxGeometry width="50" height="50" relative="1" as="geometry">
            <mxPoint x="370" y="470" as="sourcePoint" />
            <mxPoint x="240" y="370" as="targetPoint" />
          </mxGeometry>
        </mxCell>
        <mxCell id="pBB1KdMLuGqapG5jB2QY-13" value="" style="endArrow=classic;html=1;rounded=0;" edge="1" parent="WIyWlLk6GJQsqaUBKTNV-1" source="ofJoavslcpLzxaMsUvqN-4" target="pBB1KdMLuGqapG5jB2QY-3">
          <mxGeometry width="50" height="50" relative="1" as="geometry">
            <mxPoint x="40" y="360" as="sourcePoint" />
            <mxPoint x="206" y="397" as="targetPoint" />
          </mxGeometry>
        </mxCell>
        <mxCell id="pBB1KdMLuGqapG5jB2QY-14" value="" style="endArrow=classic;html=1;rounded=0;" edge="1" parent="WIyWlLk6GJQsqaUBKTNV-1" source="ofJoavslcpLzxaMsUvqN-4" target="pBB1KdMLuGqapG5jB2QY-1">
          <mxGeometry width="50" height="50" relative="1" as="geometry">
            <mxPoint x="370" y="370" as="sourcePoint" />
            <mxPoint x="420" y="320" as="targetPoint" />
          </mxGeometry>
        </mxCell>
        <mxCell id="pBB1KdMLuGqapG5jB2QY-15" value="" style="endArrow=classic;html=1;rounded=0;" edge="1" parent="WIyWlLk6GJQsqaUBKTNV-1" source="ofJoavslcpLzxaMsUvqN-4" target="pBB1KdMLuGqapG5jB2QY-0">
          <mxGeometry width="50" height="50" relative="1" as="geometry">
            <mxPoint x="170" y="305" as="sourcePoint" />
            <mxPoint x="340" y="252" as="targetPoint" />
          </mxGeometry>
        </mxCell>
        <mxCell id="pBB1KdMLuGqapG5jB2QY-18" value="" style="endArrow=classic;html=1;rounded=0;" edge="1" parent="WIyWlLk6GJQsqaUBKTNV-1" source="pBB1KdMLuGqapG5jB2QY-8" target="ofJoavslcpLzxaMsUvqN-4">
          <mxGeometry width="50" height="50" relative="1" as="geometry">
            <mxPoint x="-20" y="410.0028959003272" as="sourcePoint" />
            <mxPoint x="183.03310616579233" y="634.5967088955989" as="targetPoint" />
          </mxGeometry>
        </mxCell>
        <mxCell id="pBB1KdMLuGqapG5jB2QY-19" value="" style="endArrow=classic;html=1;rounded=0;" edge="1" parent="WIyWlLk6GJQsqaUBKTNV-1" source="pBB1KdMLuGqapG5jB2QY-7" target="ofJoavslcpLzxaMsUvqN-4">
          <mxGeometry width="50" height="50" relative="1" as="geometry">
            <mxPoint x="-48.77000000000001" y="470.00316083585346" as="sourcePoint" />
            <mxPoint x="150.00030776596552" y="639.132321329794" as="targetPoint" />
          </mxGeometry>
        </mxCell>
      </root>
    </mxGraphModel>
  </diagram>
</mxfile>
